<svg version="1.2" xmlns="http://www.w3.org/2000/svg" viewBox="0 0 1710 3102" width="1710" height="3102">
	<title>مشروع جديد</title>
	<style>
		.s0 { fill: #066e43 } 
	</style>
	<g id="مجلد 1">
		<path class="s0" d="m0.1 0.9v1709.9h1709.8v-1709.9zm1268.6 803.4c92.9 122.3 144.5 211.7 144.5 211.7-31.7 55.6-67.3 115-106.6 178.3 0 0-57.2-95.8-159.4-230.2-51.5-67.7-183.4-218.8-185.4-220.9 0.2 3-0.1 659.6 0.3 721.5l-0.3-0.1c0 0.2 0 0.6 0 0.8h-213.8c0.4-62 0.3-719.3 0.3-722.3-2 2.2-133.9 153.2-185.4 220.9-102.1 134.4-159.3 230.3-159.3 230.3-39.3-63.3-74.9-122.7-106.6-178.3 0 0 51.6-89.5 144.5-211.8 41-54 140.2-166.2 165-194-70.4 12.9-135.9 29.7-184.8 46-47.2 15.6-83.2 31-106.9 42.1-22.4 10.5-34.5 17.3-34.5 17.3 14.8-57.6 31.5-109.8 50.4-155.2 0 0 11.3-8 32.5-20.4 22-12.9 55.7-30.8 99.8-48.4 46.5-18.7 104.9-37.2 171.5-51-1.9-1.3-44-35.4-60.6-46-76.8-49.6-107-33.6-107-33.6 38.2-27.5 76.8-49.8 115-65.8 0 0 5.9-3.4 17.5-6.2 12.2-2.9 31.8-4.5 57.4 0.4 28.7 5.5 111 44.1 112.4 44.9 0.1-1.3 4-38.2 5.3-51.3 3.9-38.4 12.4-36 19.1-36.6h122.8c6.7 0.6 15.2-1.8 19.2 36.6 1.3 13.1 5.2 50.1 5.2 51.3 1.4-0.8 83.8-39.4 112.4-44.9 25.6-4.9 45.2-3.3 57.5-0.4 11.5 2.8 17.4 6.2 17.4 6.2 38.3 15.9 76.9 38.2 115.1 65.8 0 0-30.2-16-107 33.6-16.6 10.7-58.8 44.7-60.7 46 66.6 13.8 125 32.3 171.6 51 44 17.6 77.7 35.5 99.8 48.4 21.2 12.3 32.4 20.4 32.4 20.4 19 45.5 35.6 97.6 50.4 155.2 0 0-12-6.8-34.5-17.3-23.6-11.1-59.7-26.5-106.8-42.1-48.9-16.3-114.5-33.1-184.9-46 25 27.9 124.2 140.1 165.2 194.1z"/>
		<path class="s0" d="m1193.8 1876.6l139.9 153.8h376.3v-96.9h-225.5c-10 17.1-28.4 28.8-49.7 28.8-31.8 0-57.6-25.8-57.6-57.6 0-31.9 25.8-57.7 57.6-57.7 21.9 0 40.7 12.3 50.5 30.3h224.7v-54.4h-1709.9v53.7z"/>
		<path class="s0" d="m1308.9 2086.7l-139.9-153.8h-1168.9v83.6h241.7c9.8-17.9 28.6-30.2 50.4-30.2 31.8 0 57.6 25.8 57.6 57.6 0 31.8-25.8 57.6-57.6 57.6-21.3 0-39.7-11.6-49.6-28.8h-242.5v100.1h351.9l167.9-157h491.6c9.7-17.9 28.5-30.2 50.4-30.2 31.8 0 57.6 25.8 57.6 57.6 0 31.8-25.8 57.6-57.6 57.6-21.3 0-39.7-11.7-49.7-28.8h-470l-168 157h-374.1v54.3h1709.8v-196.7c0 0-401 0-401 0.1zm286.7 158.6c-21.3 0-39.7-11.7-49.7-28.8h-900.9c-10 17.1-28.4 28.8-49.7 28.8-31.8 0-57.6-25.8-57.6-57.6 0-31.8 25.8-57.6 57.6-57.6 21.9 0 40.7 12.3 50.4 30.3h899.5c9.8-18 28.6-30.3 50.4-30.3 31.8 0 57.6 25.8 57.6 57.6 0 31.8-25.8 57.6-57.6 57.6z"/>
		<path fill-rule="evenodd" class="s0" d="m88.6 2358.5v43.8h-46.5v-43.8z"/>
		<path fill-rule="evenodd" class="s0" d="m159.1 2358.5v43.8h-46.5v-43.8z"/>
		<path fill-rule="evenodd" class="s0" d="m1062.3 2664v43.7h-46.5v-43.7z"/>
		<path fill-rule="evenodd" class="s0" d="m1132.9 2664v43.7h-46.6v-43.7z"/>
		<path fill-rule="evenodd" class="s0" d="m1306 2402.3v43.3h-46.9v-43.3z"/>
		<path fill-rule="evenodd" class="s0" d="m1468.1 2365.3v43.4h-46.5v-43.4z"/>
		<path fill-rule="evenodd" class="s0" d="m1539 2365.3v43.4h-46.5v-43.4z"/>
		<path class="s0" d="m1657.5 2474.3v83.4c0 24.5-9 36.9-26.7 36.9h-26.5-6.8-23.6c-16.2 0-26.3-1.1-30.8-3 16.1-18.5 24.4-39.2 24.4-61.8 0-9.4-1.5-19.3-4.5-28.7-11.7-36.6-42.8-59.6-82.9-59.6-39.4 0-70.9 23-82.9 59.6-3 9.4-4.5 19.2-4.5 28.7 0 22.6 8.3 43.3 24.4 61.8-4.2 1.9-14.3 3-30.8 3h-21.1-13.1-48.4c4.2-11.7 6.4-24.1 6.4-38.1v-82.2h-52.9v84.1c0 24.1-9 36.2-26.6 36.2h-34.1-0.4-64c4.1-11.7 6-24.2 6-38.1v-82.3h-52.9v84.1c0 24.1-8.6 36.2-26.3 36.2h-29.3-5.2-69.1-6-68.3-6-68.3-6-335.1-6-68.3-6-68.3-6-67.9-6.4-20.6c-25.5 0-38.3-13.6-38.3-38.5v-118.7c-66.7 0-100.1 0-100.1 0.3-49.6 0-77.7 36.2-77.7 92.4 0 52.1 28.9 91.3 73.9 91.3 25.8 0 43.8-7.9 53.3-22.6q18 46.4 63 46.4h46.5 6.4 67.9 6 68.3 6 68.3 6 335.2 6 68.3 6 68.3 6 69.1 5.2 166.4 0.4 155.6 13.1 21.1c36.4 0 67.5-4.5 93.8-13.9 26.3 9.4 57.4 13.9 93.8 13.9h23.6 6.8 37.8c21.8 0 39-7.6 51.4-23 10.9-13.2 16.5-29.8 16.5-49.8v-98.1h-52.5zm-1533.6 51.7c0 30.9-13.5 51.7-35.7 51.7-21 0-36-21.9-36-48.3 0-29.4 15.7-53.1 37.2-53.1h34.5zm1374.6 43.3c-6.4 4.5-12.4 8.3-18.4 11.3q-9-4.5-18-11.3c-14.7-10.6-21.7-24.9-21.7-43.4 0-11.7 3.3-21.8 9.7-30.2 7.8-8.6 17.6-13.2 30-13.2 25.1 0 40.1 19.6 40.1 43.3 0 18.6-7.1 32.9-21.7 43.5z"/>
		<path fill-rule="evenodd" class="s0" d="m1706.6 2402.3v43.3h-46.9v-43.3z"/>
		<path fill-rule="evenodd" class="s0" d="m1635.7 2402.3v43.3h-46.5v-43.3z"/>
		<path fill-rule="evenodd" class="s0" d="m159.3 2754.1v43.5h-46.3v-43.5z"/>
		<path fill-rule="evenodd" class="s0" d="m89.1 2754.1v43.5h-46.3v-43.5z"/>
		<path fill-rule="evenodd" class="s0" d="m575 3057.7v43.4h-46.8v-43.4z"/>
		<path fill-rule="evenodd" class="s0" d="m504.3 3057.7v43.4h-46.3v-43.4z"/>
		<path class="s0" d="m526 2951.9c0 24.4-9 36.7-26.6 36.7h-22.7-244-16.5c-25.4 0-38.1-13.4-38.1-38.2v-118.1c-66.7 0-99.8 0-99.8 0.4-49.4 0-77.5 36-77.5 91.9 0 51.6 28.8 90.6 73.7 90.6 25.8 0 43.7-7.8 53.1-22.5q17.9 46.1 62.8 46.1h42.3 244 33.9c21.7 0 38.9-7.5 51.3-22.8 10.8-13.2 16.4-29.7 16.4-49.5v-97.4h-52.3zm-401.8-31.5c0 30.7-13.4 51.3-35.4 51.3-21 0-35.9-21.7-35.9-47.9 0-29.3 15.6-52.9 36.9-52.9h34.4z"/>
		<path class="s0" d="m724.1 2876.3c-13.8-4.9-37-7.1-69.9-7.1v43.8c66.5 0 94.9 23.2 94.9 75.8h-135.7v50.2h188.1v-50.6c0-56.7-26.6-94.1-77.4-112.1z"/>
		<path class="s0" d="m1656.9 2954.9c0 22.5-9 33.8-26.6 33.8h-33.2c4.1-11.3 6.3-24 6.3-37.8v-81.8h-52.3v85.8c0 22.5-9 33.8-26.5 33.8h-33.3c4-11.3 6.3-24 6.3-37.8v-81.8h-52.7v83.6c0 10.2-0.8 16.5-2.3 19.5-4 10.9-12.3 16.5-24.3 16.5h-26.8-20.2-65.1c-11.9 0-21.2-3-28-9.5 13.5-8.1 27.7-20.9 43-38.5 13.9-16.1 23.3-29.6 27.3-39.7-35.5-27.4-74-41.2-115.5-41.2-34.7 0-69.5 10.1-103.5 30.3v43.1c14.6 2.7 29.9 9 45.5 18.7 13.1 8.3 22.9 16.2 28.5 24-13.9 8.6-30.3 12.8-48.6 12.8h-68.4-46.4-35.5v-34.2c0-49.8-35.1-85.8-83-85.8-49.8 0-84.9 34.1-84.9 84.7 0 49.8 35.9 85.5 84.9 85.5 17.5 0 28-0.8 32.2-2.2-4.2 14.6-16.1 22.1-36.3 22.1h-4.5v41.9h5.7c50.9 0 79.2-20.6 85.2-61.8h36.2 46.5 69.1c15.4 0 30.7-2.6 46.4-7.5 14.6-4.9 26.1-11.3 35.2-18.8 16.8 17.7 36.2 26.3 58 26.3h76.2 20.1 240.8c18.7 0 35.5-6.8 50.1-19.9 18.4-16.5 27.3-39.4 27.3-68.6v-81.3h-52.7v85.8zm-704.8 33.8h-30.3c-19.4 0-32.1-16.1-32.1-37.4 0-19.9 10.5-35.3 30.3-35.3 19 0 32.1 14.3 32.1 36.4zm314.6-55.6c-8.7 7.8-16.8 13.8-24.3 17.3-8.7-10.2-16.5-17.7-23.3-22.5-6.7-4.9-15.7-10.2-26.8-15.1 14.5-7.1 29.5-10.4 44.4-10.4 15.4 0 31 4 47.1 12.3-3.4 5.7-9.3 11.7-17.1 18.4z"/>
	</g>
</svg>